<?xml version="1.0" encoding="UTF-8"?>
<svg id="Layer_1" xmlns="http://www.w3.org/2000/svg" version="1.1" viewBox="0 0 1080 1080">
  <!-- Generator: Adobe Illustrator 29.5.0, SVG Export Plug-In . SVG Version: 2.1.0 Build 137)  -->
  <defs>
    <style>
      .st0 {
        fill: #fff;
      }

      .st1 {
        stroke-width: 20px;
      }

      .st1, .st2 {
        fill: none;
        stroke: #ffae00;
        stroke-miterlimit: 10;
      }

      .st2 {
        stroke-width: 4px;
      }
    </style>
  </defs>
  <g>
    <path class="st0" d="M472.55,606.16c1.33,10.52,6.63,18.37,13.61,25.84l-32.98,1.16-5.16-41.97c-13.73,11.58-25.07,24.95-41.03,33.81-52.78,29.3-117.66,10.5-124.67-54.57-3.36-31.17,6.48-124.43-5.15-144.63-3.85-6.67-10.32-4.2-8.79-11.53l38.11-10.93v170.15c0,3.04,8.02,23.86,10.33,27.79,15.21,25.97,44.35,31.45,71.9,24.5,19.47-4.91,56.88-28.03,59.4-49.5,3.53-30.11,2.91-102.77.05-133.56-1.05-11.32-2.27-19.74-13.71-24.38l38.1-17.71v205.54Z"/>
    <path class="st0" d="M556.94,544.91l42.53-29.61c40.75-18.89,100.1-17.4,118.13,30.93,15.86,42.51-.59,157.98,13.49,177.08,3.65,4.95,9.75,4.71,10.97,9.45h-57.17c4.73-5.75,8.17-6.04,11.46-14.4,8.47-21.52,7.21-133.12.95-157.27-18.06-69.64-113.17-55.44-140.23-1.07,4.23,31.22-9.12,144.59,7.87,165.37,3.84,4.7,10.55,2.22,11.05,7.37h-59.89c1.82-4.69,6.58-4.27,10.5-9.92,3.65-5.25,6.11-12.02,5.97-18.53l-.14-356.77c.37-12.97-9.52-19.44-16.33-28.55l40.83-16.37v242.29Z"/>
  </g>
  <polygon class="st1" points="926.33 707.97 926.33 261.88 540 38.83 153.67 261.88 153.67 707.97 540 931.01 926.33 707.97"/>
  <polygon class="st2" points="795.33 348.08 795.33 296.77 750.9 271.12 706.46 296.77 706.46 348.08 750.9 373.74 795.33 348.08"/>
  <polygon class="st2" points="742.07 437.57 742.07 386.26 697.63 360.6 653.19 386.26 653.19 437.57 697.63 463.22 742.07 437.57"/>
  <polygon class="st2" points="847.46 437.57 847.46 386.26 803.02 360.6 758.59 386.26 758.59 437.57 803.02 463.22 847.46 437.57"/>
</svg>